<?xml version="1.0" encoding="UTF-8" standalone="no"?>
<!-- Created with Inkscape (http://www.inkscape.org/) -->

<svg
   xmlns:dc="http://purl.org/dc/elements/1.1/"
   xmlns:cc="http://creativecommons.org/ns#"
   xmlns:rdf="http://www.w3.org/1999/02/22-rdf-syntax-ns#"
   xmlns:svg="http://www.w3.org/2000/svg"
   xmlns="http://www.w3.org/2000/svg"
   xmlns:sodipodi="http://sodipodi.sourceforge.net/DTD/sodipodi-0.dtd"
   xmlns:inkscape="http://www.inkscape.org/namespaces/inkscape"
   width="95.844536mm"
   height="41.44165mm"
   viewBox="0 0 339.60662 146.84049"
   id="svg4475"
   version="1.1"
   inkscape:version="0.91 r13725"
   sodipodi:docname="radonframwor3k.svg">
  <defs
     id="defs4477">
    <inkscape:path-effect
       is_visible="true"
       id="path-effect5188"
       effect="spiro" />
    <inkscape:path-effect
       pattern-nodetypes="cccccccc"
       fuse_tolerance="0"
       vertical_pattern="false"
       prop_units="false"
       tang_offset="0"
       normal_offset="0"
       spacing="0"
       scale_y_rel="false"
       prop_scale="1"
       copytype="single_stretched"
       pattern="m 407.79221,-77.645891 c 43.54661,11.21695 50.96444,38.064321 80.66485,28.694375 l -17.22495,-18.844518 21.99957,-9.114855 -20.3705,-8.327997 25.40203,-19.155914 -52.84762,2.5 z"
       is_visible="true"
       id="path-effect5190"
       effect="skeletal" />
    <filter
       style="color-interpolation-filters:sRGB"
       id="filter5386"
       inkscape:collect="always">
      <feGaussianBlur
         id="feGaussianBlur5388"
         stdDeviation="0.94967325"
         inkscape:collect="always" />
    </filter>
  </defs>
  <sodipodi:namedview
     id="base"
     pagecolor="#ffffff"
     bordercolor="#666666"
     borderopacity="1.0"
     inkscape:pageopacity="0.0"
     inkscape:pageshadow="2"
     inkscape:zoom="0.35"
     inkscape:cx="356.23189"
     inkscape:cy="96.277389"
     inkscape:document-units="px"
     inkscape:current-layer="layer1"
     showgrid="false"
     fit-margin-top="0"
     fit-margin-left="0"
     fit-margin-right="0"
     fit-margin-bottom="0"
     inkscape:window-width="2560"
     inkscape:window-height="1417"
     inkscape:window-x="2552"
     inkscape:window-y="-8"
     inkscape:window-maximized="1" />
  <metadata
     id="metadata4480">
    <rdf:RDF>
      <cc:Work
         rdf:about="">
        <dc:format>image/svg+xml</dc:format>
        <dc:type
           rdf:resource="http://purl.org/dc/dcmitype/StillImage" />
        <dc:title></dc:title>
      </cc:Work>
    </rdf:RDF>
  </metadata>
  <g
     inkscape:label="Ebene 1"
     inkscape:groupmode="layer"
     id="layer1"
     transform="translate(-18.768111,-24.656244)">
    <path
       transform="matrix(0.3474446,0,0,0.3474446,61.237007,60.226838)"
       inkscape:export-ydpi="90"
       inkscape:export-xdpi="90"
       inkscape:export-filename="C:\Users\thomas\Desktop\path5000.png"
       sodipodi:nodetypes="csssc"
       inkscape:connector-curvature="0"
       inkscape:original-d="M 282.5547,179.97175 C 235.33616,191.24892 166.22627,2.9004212 175.70132,-35.993592 c 18.3631,-75.378498 91.54994,94.816192 171.64417,79.31223 51.26838,-9.9241 279.793,112.374722 190.62243,-15.943888 -89.17056,-128.3186 211.3403,114.08077 211.3403,114.08077"
       inkscape:path-effect="#path-effect5188;#path-effect5190"
       id="path5186"
       d="m 284.34165,180.7462 c -13.02596,28.70166 -34.07548,51.94815 -58.19644,67.49842 -26.28442,16.94449 -56.25631,24.93015 -84.47189,24.92561 -30.95477,-0.002 -60.057642,-9.47811 -83.294024,-24.48748 C 32.716448,232.11532 13.765452,208.70178 2.6518441,184.0429 -9.6938074,156.6821 -12.796822,127.28808 -8.8371978,101.19182 -4.4569137,72.196496 8.5946773,46.398304 25.653456,27.102222 44.454041,5.7974095 68.735292,-8.5355867 92.997762,-15.402064 c 26.216948,-7.452917 53.653418,-6.684378 77.490068,0.445725 26.36875,7.4483324 51.3369,24.3502587 77.92,40.942541 25.97491,16.935655 56.35499,35.223305 93.16963,44.27862 36.0088,7.786944 71.66055,5.284358 106.1582,-0.933892 29.46468,-4.844826 63.04608,-12.705106 91.07476,-13.598341 28.83036,-1.175864 60.36941,3.508847 90.92543,15.841892 -27.53296,-14.675726 -58.96565,-23.558657 -91.20218,-25.157316 0,0 -2e-5,1e-6 -2e-5,1e-6 -29.57615,-1.629591 -61.14527,3.369641 -93.61463,6.518699 -10e-6,0 -2e-5,10e-7 -2e-5,10e-7 -18.91992,1.961663 -38.43936,3.121377 -57.74801,1.940362 19.28696,-0.702097 38.32163,-3.766311 56.78989,-7.517396 31.69517,-6.322747 62.59153,-14.510003 94.11633,-16.305466 41.20934,-2.390069 83.37548,6.28191 120.78676,25.155005 -10e-6,4e-6 10e-6,8e-6 10e-6,8e-6 15.05648,7.595529 29.33179,16.838211 42.53178,27.492965 -12.59617,-11.361963 -26.41558,-21.437911 -41.20673,-29.947677 0,0 -2e-5,-4e-6 -2e-5,-4e-6 -36.75367,-21.141633 -79.38457,-32.542885 -122.40047,-32.41671 0,0 -2e-5,2e-6 -2e-5,2e-6 -32.87042,0.149224 -64.97672,6.681177 -96.3709,11.218026 -10.34871,1.443759 -20.71508,2.694148 -30.99318,3.461267 10.19453,-1.58886 20.39849,-3.656518 30.57523,-5.89402 30.87297,-6.989409 62.37239,-15.970492 96.49319,-18.73712 0,10e-7 1e-5,-1e-6 1e-5,-1e-6 44.69902,-3.435437 90.65874,5.054171 132.07692,24.990186 0,5e-6 2e-5,9e-6 2e-5,9e-6 41.40475,19.960894 77.72731,51.085482 104.18567,90.052978 C 748.98721,86.421918 713.79414,53.353624 672.39685,31.138058 630.98256,8.9539883 584.02546,-2.0208967 537.13939,-0.51273811 c 0,0 -2e-5,2.96e-6 -2e-5,2.96e-6 -35.74935,1.39684092 -68.4532,8.97317315 -98.92564,14.41851015 -30.46668,4.944924 -59.58467,8.620558 -85.15589,2.726777 -25.47861,-4.798779 -50.76274,-19.8207549 -78.03977,-35.475666 0,-5e-6 -3e-5,-2e-5 -3e-5,-2e-5 C 248.00049,-35.133616 217.9127,-52.633071 182.12128,-61.899109 148.03863,-70.224055 112.00917,-68.631865 78.840747,-57.36661 54.489201,-49.060237 32.12722,-35.68604 13.308466,-18.350887 6.7205044,-11.850803 0.63057736,-4.8654626 -4.8941265,2.5440006 -25.668967,30.479467 -37.906847,63.776464 -40.340013,97.749469 c -2.3963,33.977021 5.083515,67.914531 20.986206,97.181161 9e-6,0 1.5e-5,3e-5 1.5e-5,3e-5 15.9299005,29.25318 40.009423,53.2984 68.521173,69.01438 28.523949,15.69576 61.060469,22.81687 92.796619,20.73334 31.73572,-2.1004 62.30172,-13.38937 87.3025,-31.80757 24.99512,-18.42659 44.21893,-43.83523 55.07515,-72.12461 z"
       style="display:inline;fill:#3672b1;fill-opacity:1;fill-rule:evenodd;stroke:none;filter:url(#filter5386)" />
    <g
       id="flowRoot5390"
       style="font-style:normal;font-weight:normal;font-size:40px;line-height:125%;font-family:Sans;letter-spacing:0px;word-spacing:0px;display:inline;fill:#6aff86;fill-opacity:1;stroke:none"
       transform="matrix(0.42731545,0,0,0.42731545,-73.643343,59.755648)">
      <path
         inkscape:connector-curvature="0"
         id="path3833"
         style="font-weight:bold;font-size:64px;-inkscape-font-specification:'Sans Bold';fill:#6aff86;fill-opacity:1"
         d="m 329.84375,126.0392 0,-45.812497 19.46875,0 c 4.8958,4.5e-5 8.45309,0.411503 10.67187,1.234375 2.21872,0.82296 3.99476,2.2865 5.32813,4.390625 1.33329,2.104204 1.99996,4.510452 2,7.21875 -4e-5,3.437529 -1.01046,6.276068 -3.03125,8.515627 -2.02087,2.2396 -5.0417,3.65106 -9.0625,4.23437 1.99997,1.16669 3.65101,2.44794 4.95312,3.84375 1.30205,1.39585 3.05726,3.87502 5.26563,7.4375 l 5.59375,8.9375 -11.0625,0 -6.6875,-9.96875 c -2.37503,-3.56248 -4.00002,-5.80727 -4.875,-6.73437 -0.87502,-0.92707 -1.8021,-1.56248 -2.78125,-1.90625 -0.97919,-0.34373 -2.53127,-0.51561 -4.65625,-0.51563 l -1.875,0 0,19.125 z m 9.25,-26.437497 6.84375,0 c 4.43747,2.6e-5 7.20831,-0.187474 8.3125,-0.5625 1.10414,-0.374973 1.96872,-1.020806 2.59375,-1.9375 0.62497,-0.916637 0.93747,-2.062469 0.9375,-3.4375 -3e-5,-1.541633 -0.41149,-2.786424 -1.23438,-3.734375 -0.82294,-0.94788 -1.9844,-1.546838 -3.48437,-1.796875 -0.75003,-0.104129 -3.00002,-0.156212 -6.75,-0.15625 l -7.21875,0 z" />
      <path
         inkscape:connector-curvature="0"
         id="path3835"
         style="font-weight:bold;font-size:64px;-inkscape-font-specification:'Sans Bold';fill:#6aff86;fill-opacity:1"
         d="m 382.5625,102.9767 -7.96875,-1.4375 c 0.89583,-3.208303 2.43749,-5.583301 4.625,-7.124997 2.18749,-1.541634 5.43749,-2.312467 9.75,-2.3125 3.91665,3.3e-5 6.83331,0.463575 8.75,1.390625 1.91664,0.927114 3.2656,2.104197 4.04687,3.53125 0.78122,1.42711 1.17185,4.046902 1.17188,7.859372 l -0.0937,10.25 c -3e-5,2.91668 0.14059,5.06772 0.42187,6.45313 0.28122,1.38542 0.80726,2.86979 1.57813,4.45312 l -8.6875,0 c -0.22919,-0.58333 -0.51044,-1.44791 -0.84375,-2.59375 -0.14586,-0.52083 -0.25002,-0.86458 -0.3125,-1.03125 -1.50002,1.45834 -3.10419,2.55209 -4.8125,3.28125 -1.70835,0.72917 -3.53127,1.09375 -5.46875,1.09375 -3.41668,0 -6.10938,-0.92708 -8.07813,-2.78125 -1.96875,-1.85416 -2.95312,-4.19791 -2.95312,-7.03125 0,-1.87499 0.44791,-3.54686 1.34375,-5.01562 0.89583,-1.46874 2.15104,-2.59374 3.76562,-3.375 1.61458,-0.78123 3.9427,-1.46353 6.98438,-2.04688 4.10415,-0.77081 6.9479,-1.48956 8.53125,-2.15625 l 0,-0.875 c -2e-5,-1.68747 -0.41669,-2.8906 -1.25,-3.609372 -0.83335,-0.718724 -2.40627,-1.078098 -4.71875,-1.078125 -1.56252,2.7e-5 -2.78126,0.307318 -3.65625,0.921875 -0.87501,0.614612 -1.58335,1.692732 -2.125,3.234372 z m 11.75,7.125 c -1.12502,0.37502 -2.90627,0.82293 -5.34375,1.34375 -2.43752,0.52085 -4.03126,1.03127 -4.78125,1.53125 -1.14584,0.81251 -1.71876,1.84376 -1.71875,3.09375 -10e-6,1.22918 0.45832,2.29168 1.375,3.1875 0.91665,0.89584 2.08332,1.34376 3.5,1.34375 1.58332,1e-5 3.09373,-0.52082 4.53125,-1.5625 1.06248,-0.79166 1.76039,-1.76041 2.09375,-2.90625 0.22914,-0.74999 0.34373,-2.17707 0.34375,-4.28125 z" />
      <path
         inkscape:connector-curvature="0"
         id="path3837"
         style="font-weight:bold;font-size:64px;-inkscape-font-specification:'Sans Bold';fill:#6aff86;fill-opacity:1"
         d="m 442.0625,126.0392 -8.15625,0 0,-4.875 c -1.35419,1.89584 -2.95315,3.3073 -4.79688,4.23438 -1.84377,0.92708 -3.70314,1.39062 -5.57812,1.39062 -3.81251,0 -7.07813,-1.53646 -9.79688,-4.60937 -2.71875,-3.07291 -4.07812,-7.35937 -4.07812,-12.85938 0,-5.62498 1.32291,-9.901013 3.96875,-12.828122 2.64582,-2.927051 5.98957,-4.390592 10.03125,-4.390625 3.70831,3.3e-5 6.91664,1.541699 9.625,4.625 l 0,-16.5 8.78125,0 z M 418.625,108.7267 c -10e-6,3.54168 0.48957,6.10418 1.46875,7.6875 1.41665,2.29168 3.39582,3.43751 5.9375,3.4375 2.02081,1e-5 3.73956,-0.85937 5.15625,-2.57812 1.41664,-1.71874 2.12497,-4.28645 2.125,-7.70313 -3e-5,-3.81248 -0.68753,-6.55727 -2.0625,-8.23437 -1.37502,-1.677059 -3.13544,-2.5156 -5.28125,-2.515627 -2.08335,2.7e-5 -3.82814,0.828151 -5.23438,2.484377 -1.40626,1.65627 -2.10938,4.13023 -2.10937,7.42187 z" />
      <path
         inkscape:connector-curvature="0"
         id="path3839"
         style="font-weight:bold;font-size:64px;-inkscape-font-specification:'Sans Bold';fill:#6aff86;fill-opacity:1"
         d="m 448.71875,108.9767 c 0,-2.91664 0.71875,-5.73956 2.15625,-8.46875 1.43749,-2.729136 3.47395,-4.812467 6.10937,-6.249997 2.63541,-1.437467 5.57811,-2.156217 8.82813,-2.15625 5.02081,3.3e-5 9.13539,1.63024 12.34375,4.890625 3.2083,3.260442 4.81246,7.380232 4.8125,12.359372 -4e-5,5.02085 -1.61983,9.1823 -4.85938,12.48438 -3.23961,3.30208 -7.31773,4.95312 -12.23437,4.95312 -3.04168,0 -5.94272,-0.6875 -8.70313,-2.0625 -2.76042,-1.37499 -4.85938,-3.39062 -6.29687,-6.04687 -1.4375,-2.65624 -2.15625,-5.89061 -2.15625,-9.70313 z m 9,0.46875 c -10e-6,3.29168 0.78124,5.81251 2.34375,7.5625 1.56248,1.75001 3.48957,2.62501 5.78125,2.625 2.29164,1e-5 4.21352,-0.87499 5.76562,-2.625 1.55206,-1.74999 2.3281,-4.29165 2.32813,-7.625 -3e-5,-3.24998 -0.77607,-5.74998 -2.32813,-7.5 -1.5521,-1.74997 -3.47398,-2.624971 -5.76562,-2.624997 -2.29168,2.6e-5 -4.21877,0.875027 -5.78125,2.624997 -1.56251,1.75002 -2.34376,4.27086 -2.34375,7.5625 z" />
      <path
         inkscape:connector-curvature="0"
         id="path3841"
         style="font-weight:bold;font-size:64px;-inkscape-font-specification:'Sans Bold';fill:#6aff86;fill-opacity:1"
         d="m 520.0625,126.0392 -8.78125,0 0,-16.9375 c -3e-5,-3.58331 -0.18753,-5.90102 -0.5625,-6.95312 -0.37503,-1.05206 -0.9844,-1.86977 -1.82813,-2.453127 -0.84377,-0.583307 -1.85939,-0.874973 -3.04687,-0.875 -1.52085,2.7e-5 -2.88543,0.416693 -4.09375,1.249997 -1.20835,0.83336 -2.03647,1.93753 -2.48438,3.3125 -0.44793,1.37502 -0.67188,3.91669 -0.67187,7.625 l 0,15.03125 -8.78125,0 0,-33.187497 8.15625,0 0,4.875 c 2.89582,-3.749968 6.54165,-5.624967 10.9375,-5.625 1.93747,3.3e-5 3.70831,0.348991 5.3125,1.046875 1.60414,0.697948 2.81768,1.588572 3.64062,2.671875 0.82289,1.083362 1.3958,2.312527 1.71875,3.6875 0.32289,1.375027 0.48435,3.343777 0.48438,5.906247 z" />
    </g>
    <g
       id="flowRoot5370"
       style="font-style:normal;font-weight:normal;font-size:40px;line-height:125%;font-family:Sans;letter-spacing:0px;word-spacing:0px;display:inline;fill:#3672b1;fill-opacity:1;stroke:none"
       transform="matrix(0.42731545,0,0,0.42731545,20.476437,58.938938)">
      <path
         id="path3844"
         style="font-weight:bold;font-size:64px;-inkscape-font-specification:'Sans Bold';fill:#3672b1"
         d="m 329.875,126.0392 0,-45.812497 31.40625,0 0,7.75 -22.15625,0 0,10.84375 19.125,0 0,7.749997 -19.125,0 0,19.46875 z"
         inkscape:connector-curvature="0" />
      <path
         id="path3846"
         style="font-weight:bold;font-size:64px;-inkscape-font-specification:'Sans Bold';fill:#3672b1"
         d="m 377.28125,126.0392 -8.78125,0 0,-33.187497 8.15625,0 0,4.71875 c 1.39582,-2.229136 2.65103,-3.697885 3.76562,-4.40625 1.11457,-0.7083 2.38019,-1.062467 3.79688,-1.0625 1.99998,3.3e-5 3.92706,0.552116 5.78125,1.65625 l -2.71875,7.656247 c -1.47919,-0.95831 -2.85419,-1.437471 -4.125,-1.437497 -1.22918,2.6e-5 -2.27085,0.338567 -3.125,1.015627 -0.85418,0.67711 -1.52606,1.90106 -2.01563,3.67187 -0.48959,1.77086 -0.73438,5.47919 -0.73437,11.125 z"
         inkscape:connector-curvature="0" />
      <path
         id="path3848"
         style="font-weight:bold;font-size:64px;-inkscape-font-specification:'Sans Bold';fill:#3672b1"
         d="m 400.3125,102.9767 -7.96875,-1.4375 c 0.89583,-3.208303 2.43749,-5.583301 4.625,-7.124997 2.18749,-1.541634 5.43749,-2.312467 9.75,-2.3125 3.91665,3.3e-5 6.83331,0.463575 8.75,1.390625 1.91664,0.927114 3.2656,2.104197 4.04687,3.53125 0.78122,1.42711 1.17185,4.046902 1.17188,7.859372 l -0.0937,10.25 c -3e-5,2.91668 0.14059,5.06772 0.42187,6.45313 0.28122,1.38542 0.80726,2.86979 1.57813,4.45312 l -8.6875,0 c -0.22919,-0.58333 -0.51044,-1.44791 -0.84375,-2.59375 -0.14586,-0.52083 -0.25002,-0.86458 -0.3125,-1.03125 -1.50002,1.45834 -3.10419,2.55209 -4.8125,3.28125 -1.70835,0.72917 -3.53127,1.09375 -5.46875,1.09375 -3.41668,0 -6.10938,-0.92708 -8.07813,-2.78125 -1.96875,-1.85416 -2.95312,-4.19791 -2.95312,-7.03125 0,-1.87499 0.44791,-3.54686 1.34375,-5.01562 0.89583,-1.46874 2.15104,-2.59374 3.76562,-3.375 1.61458,-0.78123 3.9427,-1.46353 6.98438,-2.04688 4.10415,-0.77081 6.9479,-1.48956 8.53125,-2.15625 l 0,-0.875 c -2e-5,-1.68747 -0.41669,-2.8906 -1.25,-3.609372 -0.83335,-0.718724 -2.40627,-1.078098 -4.71875,-1.078125 -1.56252,2.7e-5 -2.78126,0.307318 -3.65625,0.921875 -0.87501,0.614612 -1.58335,1.692732 -2.125,3.234372 z m 11.75,7.125 c -1.12502,0.37502 -2.90627,0.82293 -5.34375,1.34375 -2.43752,0.52085 -4.03126,1.03127 -4.78125,1.53125 -1.14584,0.81251 -1.71876,1.84376 -1.71875,3.09375 -10e-6,1.22918 0.45832,2.29168 1.375,3.1875 0.91665,0.89584 2.08332,1.34376 3.5,1.34375 1.58332,1e-5 3.09373,-0.52082 4.53125,-1.5625 1.06248,-0.79166 1.76039,-1.76041 2.09375,-2.90625 0.22914,-0.74999 0.34373,-2.17707 0.34375,-4.28125 z"
         inkscape:connector-curvature="0" />
      <path
         id="path3850"
         style="font-weight:bold;font-size:64px;-inkscape-font-specification:'Sans Bold';fill:#3672b1"
         d="m 428.71875,92.851703 8.09375,0 0,4.53125 c 2.89582,-3.520802 6.34373,-5.281217 10.34375,-5.28125 2.12498,3.3e-5 3.96872,0.437533 5.53125,1.3125 1.56247,0.875031 2.84372,2.197947 3.84375,3.96875 1.4583,-1.770803 3.03122,-3.093719 4.71875,-3.96875 1.68746,-0.874967 3.48954,-1.312467 5.40625,-1.3125 2.43746,3.3e-5 4.49995,0.494825 6.1875,1.484375 1.68745,0.989614 2.94787,2.442738 3.78125,4.359375 0.60411,1.416693 0.9062,3.708357 0.90625,6.874997 l 0,21.21875 -8.78125,0 0,-18.96875 c -4e-5,-3.29164 -0.30213,-5.41664 -0.90625,-6.375 -0.81254,-1.249971 -2.06254,-1.87497 -3.75,-1.874997 -1.2292,2.7e-5 -2.38545,0.375026 -3.46875,1.125 -1.08337,0.750027 -1.86462,1.848987 -2.34375,3.296877 -0.4792,1.44794 -0.71878,3.73439 -0.71875,6.85937 l 0,15.9375 -8.78125,0 0,-18.1875 c -2e-5,-3.22914 -0.15627,-5.31247 -0.46875,-6.25 -0.31252,-0.93747 -0.7969,-1.635388 -1.45313,-2.093747 -0.65627,-0.458307 -1.54689,-0.687473 -2.67187,-0.6875 -1.35418,2.7e-5 -2.57293,0.36461 -3.65625,1.09375 -1.08335,0.729187 -1.85939,1.781277 -2.32813,3.156247 -0.46876,1.37502 -0.70313,3.65627 -0.70312,6.84375 l 0,16.125 -8.78125,0 z"
         inkscape:connector-curvature="0" />
      <path
         id="path3852"
         style="font-weight:bold;font-size:64px;-inkscape-font-specification:'Sans Bold';fill:#3672b1"
         d="m 505.46875,115.4767 8.75,1.46875 c -1.12503,3.20834 -2.90107,5.65105 -5.32813,7.32813 -2.4271,1.67708 -5.46356,2.51562 -9.10937,2.51562 -5.77085,0 -10.04167,-1.88541 -12.8125,-5.65625 -2.1875,-3.02082 -3.28125,-6.83332 -3.28125,-11.4375 0,-5.49998 1.4375,-9.807263 4.3125,-12.921872 2.87499,-3.114551 6.5104,-4.671842 10.90625,-4.671875 4.93748,3.3e-5 8.83331,1.63024 11.6875,4.890625 2.85413,3.260442 4.21872,8.255232 4.09375,14.984372 l -22,0 c 0.0625,2.60418 0.77082,4.63022 2.125,6.07813 1.35415,1.44792 3.04165,2.17188 5.0625,2.17187 1.37498,1e-5 2.53123,-0.37499 3.46875,-1.125 0.93748,-0.74999 1.64581,-1.95832 2.125,-3.625 z m 0.5,-8.875 c -0.0625,-2.54164 -0.71877,-4.47393 -1.96875,-5.79687 -1.25002,-1.322893 -2.77085,-1.98435 -4.5625,-1.984377 -1.91668,2.7e-5 -3.50001,0.697943 -4.75,2.093747 -1.25001,1.39586 -1.86459,3.29169 -1.84375,5.6875 z"
         inkscape:connector-curvature="0" />
      <path
         id="path3854"
         style="font-weight:bold;font-size:64px;-inkscape-font-specification:'Sans Bold';fill:#3672b1"
         d="m 528.0625,126.0392 -10.5,-33.187497 8.53125,0 6.21875,21.749997 5.71875,-21.749997 8.46875,0 5.53125,21.749997 6.34375,-21.749997 8.65625,0 -10.65625,33.187497 -8.4375,0 -5.71875,-21.34375 -5.625,21.34375 z"
         inkscape:connector-curvature="0" />
      <path
         id="path3856"
         style="font-weight:bold;font-size:64px;-inkscape-font-specification:'Sans Bold';fill:#3672b1"
         d="m 569.59375,108.9767 c 0,-2.91664 0.71875,-5.73956 2.15625,-8.46875 1.43749,-2.729136 3.47395,-4.812467 6.10937,-6.249997 2.63541,-1.437467 5.57811,-2.156217 8.82813,-2.15625 5.02081,3.3e-5 9.13539,1.63024 12.34375,4.890625 3.2083,3.260442 4.81246,7.380232 4.8125,12.359372 -4e-5,5.02085 -1.61983,9.1823 -4.85938,12.48438 -3.23961,3.30208 -7.31773,4.95312 -12.23437,4.95312 -3.04168,0 -5.94272,-0.6875 -8.70313,-2.0625 -2.76042,-1.37499 -4.85938,-3.39062 -6.29687,-6.04687 -1.4375,-2.65624 -2.15625,-5.89061 -2.15625,-9.70313 z m 9,0.46875 c -10e-6,3.29168 0.78124,5.81251 2.34375,7.5625 1.56248,1.75001 3.48957,2.62501 5.78125,2.625 2.29164,1e-5 4.21352,-0.87499 5.76562,-2.625 1.55206,-1.74999 2.3281,-4.29165 2.32813,-7.625 -3e-5,-3.24998 -0.77607,-5.74998 -2.32813,-7.5 -1.5521,-1.74997 -3.47398,-2.624971 -5.76562,-2.624997 -2.29168,2.6e-5 -4.21877,0.875027 -5.78125,2.624997 -1.56251,1.75002 -2.34376,4.27086 -2.34375,7.5625 z"
         inkscape:connector-curvature="0" />
      <path
         id="path3858"
         style="font-weight:bold;font-size:64px;-inkscape-font-specification:'Sans Bold';fill:#3672b1"
         d="m 619.15625,126.0392 -8.78125,0 0,-33.187497 8.15625,0 0,4.71875 c 1.39582,-2.229136 2.65103,-3.697885 3.76562,-4.40625 1.11457,-0.7083 2.38019,-1.062467 3.79688,-1.0625 1.99998,3.3e-5 3.92706,0.552116 5.78125,1.65625 l -2.71875,7.656247 c -1.47919,-0.95831 -2.85419,-1.437471 -4.125,-1.437497 -1.22918,2.6e-5 -2.27085,0.338567 -3.125,1.015627 -0.85418,0.67711 -1.52606,1.90106 -2.01563,3.67187 -0.48959,1.77086 -0.73438,5.47919 -0.73437,11.125 z"
         inkscape:connector-curvature="0" />
      <path
         id="path3860"
         style="font-weight:bold;font-size:64px;-inkscape-font-specification:'Sans Bold';fill:#3672b1"
         d="m 635.3125,126.0392 0,-45.812497 8.78125,0 0,24.312497 10.28125,-11.687497 10.8125,0 L 653.84375,104.9767 666,126.0392 l -9.46875,0 -8.34375,-14.90625 -4.09375,4.28125 0,10.625 z"
         inkscape:connector-curvature="0" />
    </g>
  </g>
</svg>
